<?xml version="1.0" standalone="no"?>
<!DOCTYPE svg PUBLIC "-//W3C//DTD SVG 20010904//EN"
 "http://www.w3.org/TR/2001/REC-SVG-20010904/DTD/svg10.dtd">
<svg version="1.0" xmlns="http://www.w3.org/2000/svg"
 width="512.000000pt" height="512.000000pt" viewBox="0 0 512.000000 512.000000"
 preserveAspectRatio="xMidYMid meet">

<g transform="translate(0.000000,512.000000) scale(0.100000,-0.100000)"
fill="#000000" stroke="none">
<path d="M2367 5105 c-529 -76 -966 -442 -1132 -950 -211 -645 75 -1349 676
-1664 213 -112 409 -161 649 -161 240 0 436 49 649 161 492 258 783 783 740
1334 -10 137 -24 210 -65 333 -158 482 -578 849 -1073 938 -123 22 -326 26
-444 9z"/>
<path d="M2155 2078 c-35 -19 -55 -52 -55 -93 0 -25 43 -167 112 -375 l111
-335 -68 -345 c-37 -190 -71 -350 -74 -357 -3 -6 -109 277 -235 630 -126 353
-237 658 -247 677 -40 82 -77 90 -222 49 -330 -92 -876 -324 -1029 -436 -219
-161 -356 -365 -420 -623 -25 -103 -36 -368 -20 -473 31 -196 187 -356 378
-387 80 -13 4268 -13 4348 0 191 31 347 191 378 387 16 105 5 370 -20 473 -64
258 -201 462 -420 623 -153 112 -699 344 -1029 436 -145 41 -182 33 -222 -49
-10 -19 -121 -324 -247 -677 -126 -353 -232 -636 -235 -630 -3 7 -37 167 -74
357 l-68 345 111 335 c69 208 112 350 112 375 0 42 -20 75 -57 94 -30 15 -780
15 -808 -1z"/>
</g>
</svg>
